<?xml version="1.0" encoding="utf-8"?>
<!-- Generator: Adobe Illustrator 25.0.1, SVG Export Plug-In . SVG Version: 6.00 Build 0)  -->
<svg version="1.1" id="Layer_1" xmlns="http://www.w3.org/2000/svg" xmlns:xlink="http://www.w3.org/1999/xlink" x="0px" y="0px"
	 viewBox="0 0 448 512" style="enable-background:new 0 0 448 512;" xml:space="preserve">
<style type="text/css">
	.st0{fill:#37423B;}
</style>
<path class="st0" d="M448,80v352c0,26.5-21.5,48-48,48h-85.3V302.8h60.6l8.7-67.6h-69.3V192c0-19.6,5.4-32.9,33.5-32.9H384V98.7
	c-6.2-0.8-27.4-2.7-52.2-2.7c-51.6,0-87,31.5-87,89.4v49.9H184v67.6h60.9V480H48c-26.5,0-48-21.5-48-48V80c0-26.5,21.5-48,48-48h352
	C426.5,32,448,53.5,448,80z"/>
</svg>
